<svg version="1.1" xmlns="http://www.w3.org/2000/svg" xmlns:xlink="http://www.w3.org/1999/xlink" x="0px" y="0px" width="80.875px" height="72.501px" viewBox="-17.188 -18.029 80.875 72.501" enable-background="new -17.188 -18.029 80.875 72.501" xml:space="preserve">
<rect fill="#d0d0d0" width="7.375" height="25.625"/>
<rect x="38.375" fill="#d0d0d0" width="7.375" height="25.625"/>
<rect x="19.062" y="0.125" fill="#d0d0d0" width="7.375" height="25.625"/>
<rect class="res" x="9.5" fill="#d0d0d0" width="7.375" height="11.625"/>
<rect x="9.5" y="14.125" fill="#d0d0d0" width="7.375" height="11.625"/>
<rect x="28.625" y="14.125" fill="#d0d0d0" width="7.375" height="11.625"/>
<rect x="28.5" fill="#d0d0d0" width="7.375" height="11.625"/>
<rect y="27.875" fill="#d0d0d0" width="21.875" height="7.188"/>
<rect x="24" y="27.875" fill="#d0d0d0" width="21.875" height="7.188"/>
<path fill="#f0f0f0" d="M-5.995,20.749l0.024,0.024l5.229-5.377l-5.377-5.228l-0.024,0.024c-2.706-2.15-6.655-1.941-9.116,0.59 c-2.623,2.697-2.562,7.011,0.135,9.634C-12.593,22.877-8.64,22.974-5.995,20.749z"/>
<path fill="#f0f0f0" d="M52.494,10.314l-0.023-0.024l-5.229,5.377l5.377,5.229l0.023-0.024c2.707,2.15,6.656,1.941,9.117-0.59 c2.622-2.697,2.562-7.011-0.136-9.634C59.093,8.186,55.14,8.089,52.494,10.314z"/>
<path fill="#f0f0f0" d="M17.45-6.934l-0.025,0.023l5.278,5.329l5.329-5.277l-0.024-0.024c2.201-2.666,2.066-6.619-0.418-9.127 c-2.647-2.672-6.961-2.694-9.635-0.045C15.447-13.572,15.275-9.621,17.45-6.934z"/>
<path fill="#f0f0f0" d="M28.05,43.377l0.024-0.022l-5.278-5.329l-5.329,5.277l0.024,0.024c-2.201,2.666-2.066,6.618,0.418,9.127 c2.647,2.673,6.961,2.694,9.635,0.046C30.053,50.015,30.225,46.064,28.05,43.377z"/>
</svg>